PathFileType	4	(X/Y/Z)	Patient4_TMGait_0pt7_01_left_18.trc.trc
DataRate	CameraRate	NumFrames	NumMarkers	Units	OrigDataRate	OrigDataStartFrame	OrigNumFrames
86.419753086420	86.419753086420	6	33	mm	86.419753086420	36	       141
Frame#	Time	Sacral			L.Shoulder			Chest			R.Shoulder			Neck			R.ASIS			L.ASIS			R.Thigh.Superior			R.Thigh.Lateral			R.Thigh.Inferior			R.Patella			L.Thigh.Superior			L.Thigh.Lateral			L.Thigh.Inferior			L.Patella			L.Shank.Superior			L.Shank.Lateral			L.Shank.Inferior			R.Shank.Superior			R.Shank.Lateral			R.Shank.Inferior			R.Heel			R.Midfoot.Superior			R.Midfoot.Lateral			R.Toe			L.Heel			L.Midfoot.Lateral			L.Midfoot.Superior			L.Toe			L.Elbow			L.Wrist			R.Elbow			R.Wrist			
		X1	Y1	Z1	X2	Y2	Z2	X3	Y3	Z3	X4	Y4	Z4	X5	Y5	Z5	X6	Y6	Z6	X7	Y7	Z7	X8	Y8	Z8	X9	Y9	Z9	X10	Y10	Z10	X11	Y11	Z11	X12	Y12	Z12	X13	Y13	Z13	X14	Y14	Z14	X15	Y15	Z15	X16	Y16	Z16	X17	Y17	Z17	X18	Y18	Z18	X19	Y19	Z19	X20	Y20	Z20	X21	Y21	Z21	X22	Y22	Z22	X23	Y23	Z23	X24	Y24	Z24	X25	Y25	Z25	X26	Y26	Z26	X27	Y27	Z27	X28	Y28	Z28	X29	Y29	Z29	X30	Y30	Z30	X31	Y31	Z31	X32	Y32	Z32	X33	Y33	Z33	

36	21.055000000000	834.604471308673	1003.160526235144	478.718906375155	991.719339367828	1431.363296008874	293.561024699514	1112.467405934569	1356.982007165301	439.931944301964	1051.359898489771	1432.836482644366	621.562927857938	1013.128535650723	1488.895914917381	448.662289753410	1062.902825494244	933.055560421378	581.554571601257	1038.058331722529	956.291841620962	308.382882305735	1068.903168432291	721.508471558257	563.723620241434	970.032808857431	625.124694765763	627.648334757413	1040.643762914812	555.987129411230	556.235029638793	1020.222939775760	453.653586718614	574.150432918172	1112.988946664793	767.225276569533	343.691572586453	1049.182056094626	637.718743429845	279.563221972559	1145.748992599622	572.711657993080	342.939021075701	1158.847460854092	500.737813995268	349.538278899058	1133.848406551675	425.794637167483	340.755184913388	1050.815059508843	308.078884409486	287.752617170521	1108.200457072754	197.741396202164	354.387457507098	947.658189962655	385.900852784555	579.126305637171	831.606153738033	332.584853893783	637.513562409973	827.349974619775	224.289038955010	583.566592181608	632.557266013060	125.429352705240	552.422003399497	810.279664241829	108.987515370581	592.528637156331	703.898715765699	78.492081398203	623.576099834944	899.173578901375	35.554632303371	610.730171594733	986.884733259831	39.021035605983	391.948268917505	1060.702885565982	36.983641080423	311.262872736940	1143.295721443783	97.831158188022	338.137716171524	1271.878086920003	45.360239580593	308.202077201937	847.242493564644	1112.005544758064	195.275682866047	809.665778375784	854.020866537581	208.451901866431	1189.691791602242	1127.508602790063	738.729531591414	1337.015467288858	1276.791631325028	605.025345832958	
37	21.066571428571	834.793268546355	1004.202838083275	475.805417280778	992.095958140437	1433.250750358541	292.043827836796	1112.714430342243	1358.496336609351	438.287916978441	1051.228438165905	1433.728687934741	620.110293768746	1013.036323174042	1490.148230988190	447.222745354908	1063.425852526811	934.205779281879	578.241155324614	1038.539637482814	957.833685484816	305.333127458421	1073.312688641795	723.239157596493	561.698596571879	976.900305035009	625.414575204144	626.375541627066	1049.462622550600	556.921517546172	555.490694201025	1029.948892271744	453.212458101917	574.985612376839	1112.248451539427	766.741486658189	339.723212912259	1045.500555699872	637.483261552395	277.635473955779	1141.860803491750	571.694071684047	340.360024038172	1154.166351408491	499.954572669813	347.846153707810	1128.645990775117	425.176028715932	339.382804155917	1044.694644717985	307.904397861880	286.953074290140	1101.274025366436	197.477626125590	354.019699090756	955.144009856038	386.551027098510	579.899059782051	836.763977351640	337.748090572145	637.684716900710	829.759671944757	228.927346168863	585.215550634026	631.990813742259	138.996046383893	554.202525554721	808.177555392963	111.542807103044	593.945459986860	700.359589393172	87.071673482145	624.672690091957	891.462308663480	34.586631648225	610.656541803222	978.882656551290	39.028517315788	391.930138870907	1052.668659716235	36.937213807187	311.235973730225	1135.355736793808	97.759305018001	338.097915877858	1263.937755314101	44.995353214721	308.112563342480	853.013311840277	1111.384356889870	191.305141649460	825.702181921689	852.072623623297	204.029119912131	1179.295929750614	1123.381877041844	739.358672015606	1333.192939990662	1266.960970833416	606.840108505548	
38	21.078142857143	834.802324228825	1004.992626379964	472.985031017835	992.551168792241	1434.934907784406	290.530488376472	1112.888412653947	1359.771092386973	436.756069317764	1050.875129831708	1434.375333062687	618.722273342316	1012.830454454126	1491.192584224004	445.794559106550	1063.806531589591	935.207991181734	575.096183764543	1038.879400773653	959.073640105360	302.440542530485	1078.054662308001	724.999199226190	559.751072443903	984.371386153101	625.614916923511	625.167200857970	1058.791007626415	557.952805336991	554.552480676047	1040.252028702341	452.941835124535	575.309606493034	1111.267687703753	765.992916285997	335.996837173548	1041.814292404486	637.205999104419	275.709660349887	1137.834909584050	570.625386432933	337.950462658291	1149.314227704959	499.090685541768	346.164172176431	1123.301665447290	424.476568497004	337.990976518722	1038.448158908618	307.642241805774	286.119316364646	1094.232286815691	197.134029470626	353.632106246510	963.382658565470	387.285613288712	580.274149984803	842.945919945983	343.041934824094	637.699857963343	833.035257146931	233.862958837937	586.629503076802	632.787243147074	153.482432781947	555.950655215460	806.628301258014	114.546451371037	595.111280168555	697.755694972985	96.698543700407	625.768975972618	883.826168170610	33.336981953737	610.648546169997	970.812989037011	39.012723964795	391.931795053812	1044.555292513483	36.853975012729	311.211406269662	1127.357521395229	97.621402654223	338.066739188854	1255.931224057353	44.547530085837	308.026994115828	858.971440516922	1110.711008573438	187.189654832701	842.982203742781	850.433951332610	199.699956278979	1167.980428611143	1119.102344242826	739.838563116764	1329.641114818611	1255.547477416136	609.039164320650	
39	21.089714285714	834.632742369610	1005.504954396114	470.290662963866	993.064805017064	1436.366970059601	289.028165881748	1112.975491887281	1360.775065865717	435.356123692762	1050.293346260120	1434.769122002661	617.415033389811	1012.527728822753	1492.015625300794	444.391288113005	1064.031652880301	936.044995970364	572.152427629262	1039.050200988506	960.009952674312	299.713957297562	1083.031946270870	726.816167353403	557.844346010602	992.358986386626	625.784200598846	623.988442035451	1068.493345490841	559.141057839047	553.361332214582	1051.049450268493	452.887882429757	575.069736034073	1110.075050071434	765.065439738860	332.596252001868	1038.248864376271	636.933596179413	273.779363652407	1133.766235352459	569.546756572099	335.729786603663	1144.395294025959	498.170397258362	344.497671140778	1117.913122466094	423.709390972219	336.592013378262	1032.167216900609	307.321187216126	285.242486338237	1087.119367780737	196.721507225809	353.224196312667	972.285086924391	388.144089607698	580.188444773642	850.096729472892	348.425364753134	637.519437451616	837.156704993553	239.075323943571	587.731305746457	635.010327082330	168.689619367228	557.564760382008	805.696294080530	118.050051866401	595.982449575762	696.201969607269	107.283759760143	626.805452396893	876.382529639145	31.854498336715	610.735476063923	962.695564145671	38.982656664178	391.930864422204	1036.389649805911	36.750638882700	311.173130328812	1119.316329661617	97.444438668189	338.031452743511	1247.876443234293	44.063455827558	307.939918547713	865.190304153941	1109.915019636811	182.946990827239	861.423712563196	849.156206244108	195.506093554440	1155.826825630380	1114.711727590309	740.067885628900	1326.263019032449	1242.481933239922	611.647702743993	
40	21.101285714286	834.289505511452	1005.743999876389	467.738763537616	993.604757707656	1437.519921398068	287.546507625189	1112.962284387339	1361.505358187949	434.101772127122	1049.481622281079	1434.925766314411	616.202847032841	1012.148698839551	1492.622143338149	443.027143462194	1064.087897394638	936.715744013677	569.434614547509	1039.043207560793	960.667529823652	297.161233321375	1088.134484732744	728.730028662002	555.931456830786	1000.751220705282	625.997879429453	622.801985422201	1078.429048284075	560.558482896263	551.882341689670	1062.257919567176	453.109563263805	574.268822383182	1108.716312286998	764.042149104977	329.565748925110	1034.864950051411	636.690033674921	271.860038231560	1129.721127588773	568.481862960294	333.700626091349	1139.488059985586	497.213703038498	342.868211908130	1112.550896425987	422.889380147178	335.209239894883	1025.916045398918	306.967991122915	284.333245855630	1079.969512532282	196.254150897589	352.804572258344	981.759613345105	389.177687677962	579.627601141542	858.135599759464	353.861097816894	637.114916217898	842.103994533527	244.531286399059	588.465235678089	638.680812884552	184.331135500176	558.927392008986	805.485384237518	122.077078992673	596.542753864219	695.808059591025	118.651672087583	627.711594256679	869.325884728885	30.250322691235	610.947122755248	954.550102505094	38.946050586572	391.912960930724	1028.196839821959	36.641292812217	311.112500492770	1111.246831523715	97.252707489853	337.984518429456	1239.790395674719	43.584567855763	307.847271328319	871.762166115614	1108.944313509210	178.595841232452	880.920205322437	848.285354049090	191.486036584604	1142.936137933925	1110.272727544638	739.949609027882	1322.923305841734	1227.711937747439	614.687439102278	
41	21.112857142857	833.781677156508	1005.740484040627	465.329965441150	994.134164653163	1438.388954372846	286.096273837204	1112.837721072878	1361.985385959527	433.001034423354	1048.441971784621	1434.881525988506	615.096220971854	1011.714344607635	1493.032435981813	441.713484562049	1063.962311472207	937.233466856959	566.961839834827	1038.871230285593	961.092194091773	294.794972532736	1093.252319806331	730.788315512176	553.963171698272	1009.421013254545	626.339422369347	621.572694790531	1088.464860428323	562.281371844022	550.110177402189	1073.795651363671	453.674538855440	572.958516923638	1107.246396078494	762.990751949056	326.914749248509	1031.666425371287	636.480939308440	269.983902012133	1125.734225335148	567.438904444178	331.855831282573	1134.639599143116	496.235784546852	341.309523119875	1107.254344704571	422.032356167316	333.874183064549	1019.730682887434	306.605577459375	283.415233580404	1072.805737632578	195.747819687421	352.388139275401	991.717985168618	390.444468508705	578.624529645095	866.962624087872	359.313325143645	636.469149250084	847.860572239692	250.179296540871	588.799996068497	643.769511551468	200.032145124070	559.917078416396	806.139868232027	126.614971909349	596.805774204018	696.674573052143	130.536668344153	628.412817453741	862.944627621512	28.696604772338	611.310974493912	946.393029701188	38.909160273335	391.871218976769	1019.996866435524	36.536468071385	311.027492463307	1103.161085343900	97.064903877532	337.923621375867	1231.686773534498	43.141872372177	307.747011811057	878.785899838415	1107.775584378722	174.156236465787	901.333014120638	847.861897124965	187.672910520861	1129.429717005224	1105.871844283836	739.400586365138	1319.448990286450	1211.214957381400	618.170924700930	
